<svg xmlns="http://www.w3.org/2000/svg" viewBox="0 0 1000 1000">
  <title>lucky-wheel-regular</title>
  <path d="M179.15,332.65c0,276.14,223.86,500,500,500s500-223.86,500-500-223.86-500-500-500S179.15,56.51,179.15,332.65ZM789.8,12.49a339.4,339.4,0,0,1,159.58,116l110.21-72.28L956.8,138.72a337,337,0,0,1,60.93,187.62l131.67,6.31L1017.73,339A337,337,0,0,1,956.8,526.58l102.79,82.48L949.38,536.78a339.4,339.4,0,0,1-159.58,116l34.66,127.08L777.81,656.7a340.29,340.29,0,0,1-197.32,0L533.83,779.89,568.5,652.8a339.4,339.4,0,0,1-159.58-116L298.71,609.06,401.5,526.58A337,337,0,0,1,340.56,339L208.9,332.65l131.67-6.31A337,337,0,0,1,401.5,138.72L298.71,56.24l110.21,72.28a339.4,339.4,0,0,1,159.58-116L533.83-114.59,580.49,8.6a340.29,340.29,0,0,1,197.32,0l46.66-123.19Z" transform="translate(-179.15 167.35)" style="fill: #99928f"/>
</svg>
